<?xml version="1.0" standalone="no"?>
<!DOCTYPE svg PUBLIC "-//W3C//DTD SVG 20010904//EN"
 "http://www.w3.org/TR/2001/REC-SVG-20010904/DTD/svg10.dtd">
<svg version="1.0" xmlns="http://www.w3.org/2000/svg"
 width="880.000000pt" height="355.000000pt" viewBox="0 0 880.000000 355.000000"
 preserveAspectRatio="xMidYMid meet">

<g transform="translate(0.000000,355.000000) scale(0.100000,-0.100000)"
fill="#000000" stroke="none">
<path d="M0 1775 l0 -1775 4400 0 4400 0 0 1775 0 1775 -4400 0 -4400 0 0
-1775z m3697 15 c72 -124 135 -235 142 -247 l12 -23 -297 0 -296 0 25 43 c13
23 79 138 147 255 67 118 126 210 130 205 4 -4 66 -109 137 -233z m308 90 c37
-66 70 -120 74 -120 3 1 37 55 74 120 l68 120 40 0 c21 0 39 -2 39 -5 0 -8
-202 -359 -214 -372 -8 -9 -37 34 -119 177 -59 104 -107 191 -107 195 0 3 18
5 39 5 l40 0 66 -120z m1535 -71 l0 -190 -32 3 -33 3 -3 175 c-1 96 0 180 2
187 3 7 19 13 36 13 l30 0 0 -191z m-1058 75 c38 -20 60 -56 66 -109 l5 -45
-112 0 c-63 0 -111 -4 -111 -9 0 -17 43 -41 72 -41 15 0 39 5 53 12 20 9 31 8
50 -2 31 -17 28 -29 -14 -54 -45 -26 -130 -24 -176 4 -104 64 -84 226 33 258
43 12 94 7 134 -14z m531 12 c36 -13 77 -42 77 -55 0 -3 -13 -13 -28 -22 -27
-15 -30 -15 -51 2 -55 45 -131 9 -131 -61 0 -68 78 -104 131 -61 23 18 26 18
52 3 31 -19 31 -28 -4 -55 -64 -47 -168 -38 -219 19 -26 30 -30 42 -30 94 0
52 4 64 30 94 44 50 107 65 173 42z m340 -12 c38 -20 67 -71 67 -116 l0 -38
-110 0 c-60 0 -110 -4 -110 -9 0 -30 69 -48 119 -31 41 13 86 0 78 -23 -15
-46 -148 -65 -207 -30 -64 37 -89 126 -56 192 38 73 136 97 219 55z m-683 -4
c0 -11 1 -20 3 -20 1 0 20 9 42 20 57 29 65 26 65 -20 0 -37 -2 -40 -29 -40
-16 0 -39 -9 -52 -19 -21 -17 -24 -30 -27 -100 l-4 -81 -34 0 -34 0 0 140 0
140 35 0 c28 0 35 -4 35 -20z"/>
<path d="M4340 1818 l-25 -23 74 -3 c40 -2 76 0 80 3 3 4 -5 15 -18 26 -32 26
-81 24 -111 -3z"/>
<path d="M5217 1822 c-10 -10 -17 -22 -17 -25 0 -4 32 -7 70 -7 73 0 82 6 52
33 -25 23 -85 22 -105 -1z"/>
</g>
</svg>
